Jinko-Regular.ufo
<glyph name="exclam" format="1">
  <advance width="451"/>
  <unicode hex="0021"/>
  <outline>
    <contour>
      <point x="225" y="-2" type="curve" smooth="yes"/>
      <point x="142" y="-2"/>
      <point x="75" y="63"/>
      <point x="75" y="147" type="curve" smooth="yes"/>
      <point x="75" y="230"/>
      <point x="142" y="296"/>
      <point x="225" y="296" type="curve" smooth="yes"/>
      <point x="308" y="296"/>
      <point x="376" y="230"/>
      <point x="376" y="147" type="curve" smooth="yes"/>
      <point x="376" y="63"/>
      <point x="308" y="-2"/>
    </contour>
    <contour>
      <point x="194" y="485" type="line"/>
      <point x="105" y="1481" type="line"/>
      <point x="348" y="1481" type="line"/>
      <point x="260" y="485" type="line"/>
    </contour>
  </outline>
</glyph>
<glyph name="dollar" format="1">
  <advance width="1145"/>
  <unicode hex="0024"/>
  <outline>
    <contour>
      <point x="634" y="656" type="curve"/>
      <point x="634" y="122" type="line"/>
      <point x="850" y="145"/>
      <point x="923" y="261"/>
      <point x="923" y="373" type="curve" smooth="yes"/>
      <point x="923" y="519"/>
      <point x="884" y="585"/>
    </contour>
    <contour>
      <point x="533" y="844" type="curve"/>
      <point x="533" y="1357" type="line"/>
      <point x="331" y="1331"/>
      <point x="243" y="1217"/>
      <point x="243" y="1102" type="curve" smooth="yes"/>
      <point x="243" y="994"/>
      <point x="282" y="908"/>
    </contour>
    <contour>
      <point x="533" y="682" type="line"/>
      <point x="223" y="751"/>
      <point x="75" y="859"/>
      <point x="75" y="1098" type="curve" smooth="yes"/>
      <point x="75" y="1331"/>
      <point x="270" y="1480"/>
      <point x="533" y="1501" type="curve"/>
      <point x="533" y="1617" type="line"/>
      <point x="634" y="1617" type="line"/>
      <point x="634" y="1502" type="line"/>
      <point x="785" y="1497"/>
      <point x="932" y="1464"/>
      <point x="1045" y="1397" type="curve"/>
      <point x="1030" y="1259" type="line"/>
      <point x="1013" y="1259" type="line"/>
      <point x="944" y="1304"/>
      <point x="783" y="1359"/>
      <point x="634" y="1362" type="curve"/>
      <point x="634" y="820" type="line"/>
      <point x="957" y="742"/>
      <point x="1097" y="649"/>
      <point x="1097" y="387" type="curve" smooth="yes"/>
      <point x="1097" y="139"/>
      <point x="899" y="2"/>
      <point x="634" y="-20" type="curve"/>
      <point x="634" y="-134" type="line"/>
      <point x="533" y="-134" type="line"/>
      <point x="533" y="-23" type="line"/>
      <point x="336" y="-19"/>
      <point x="170" y="40"/>
      <point x="45" y="126" type="curve"/>
      <point x="69" y="266" type="line"/>
      <point x="98" y="266" type="line"/>
      <point x="209" y="166"/>
      <point x="399" y="122"/>
      <point x="533" y="118" type="curve"/>
    </contour>
  </outline>
</glyph>
<glyph name="parenright" format="1">
  <advance width="578"/>
  <unicode hex="0029"/>
  <outline>
    <contour>
      <point x="166" y="-225" type="curve"/>
      <point x="45" y="-225" type="line"/>
      <point x="45" y="-187" type="line"/>
      <point x="197" y="-6"/>
      <point x="364" y="276"/>
      <point x="364" y="637" type="curve" smooth="yes"/>
      <point x="364" y="986"/>
      <point x="215" y="1251"/>
      <point x="45" y="1445" type="curve"/>
      <point x="45" y="1481" type="line"/>
      <point x="166" y="1481" type="line"/>
      <point x="383" y="1248"/>
      <point x="529" y="976"/>
      <point x="529" y="640" type="curve" smooth="yes"/>
      <point x="529" y="262"/>
      <point x="385" y="9"/>
    </contour>
  </outline>
</glyph>
<glyph name="asterisk" format="1">
  <advance width="981"/>
  <unicode hex="002A"/>
  <outline>
    <contour>
      <point x="83" y="1211" type="curve"/>
      <point x="85" y="1268"/>
      <point x="126" y="1311"/>
      <point x="180" y="1312" type="curve" smooth="yes"/>
      <point x="197" y="1312"/>
      <point x="215" y="1308"/>
      <point x="234" y="1297" type="curve" smooth="yes"/>
      <point x="307" y="1255"/>
      <point x="391" y="1161"/>
      <point x="452" y="1103" type="curve"/>
      <point x="432" y="1185"/>
      <point x="394" y="1305"/>
      <point x="394" y="1389" type="curve" smooth="yes"/>
      <point x="394" y="1458"/>
      <point x="444" y="1491"/>
      <point x="492" y="1491" type="curve" smooth="yes"/>
      <point x="539" y="1491"/>
      <point x="590" y="1458"/>
      <point x="590" y="1389" type="curve" smooth="yes"/>
      <point x="590" y="1305"/>
      <point x="552" y="1185"/>
      <point x="532" y="1103" type="curve"/>
      <point x="593" y="1161"/>
      <point x="677" y="1255"/>
      <point x="750" y="1297" type="curve" smooth="yes"/>
      <point x="769" y="1308"/>
      <point x="788" y="1313"/>
      <point x="805" y="1313" type="curve" smooth="yes"/>
      <point x="859" y="1312"/>
      <point x="901" y="1269"/>
      <point x="901" y="1212" type="curve" smooth="yes"/>
      <point x="901" y="1181"/>
      <point x="886" y="1148"/>
      <point x="848" y="1127" type="curve" smooth="yes"/>
      <point x="775" y="1085"/>
      <point x="652" y="1059"/>
      <point x="571" y="1035" type="curve"/>
      <point x="652" y="1011"/>
      <point x="775" y="985"/>
      <point x="848" y="943" type="curve" smooth="yes"/>
      <point x="886" y="922"/>
      <point x="901" y="890"/>
      <point x="901" y="859" type="curve"/>
      <point x="899" y="802"/>
      <point x="858" y="759"/>
      <point x="804" y="758" type="curve" smooth="yes"/>
      <point x="787" y="758"/>
      <point x="769" y="762"/>
      <point x="750" y="773" type="curve" smooth="yes"/>
      <point x="677" y="815"/>
      <point x="593" y="909"/>
      <point x="532" y="967" type="curve"/>
      <point x="552" y="885"/>
      <point x="590" y="765"/>
      <point x="590" y="681" type="curve" smooth="yes"/>
      <point x="590" y="612"/>
      <point x="540" y="579"/>
      <point x="492" y="579" type="curve" smooth="yes"/>
      <point x="445" y="579"/>
      <point x="394" y="612"/>
      <point x="394" y="681" type="curve" smooth="yes"/>
      <point x="394" y="765"/>
      <point x="432" y="885"/>
      <point x="452" y="967" type="curve"/>
      <point x="391" y="909"/>
      <point x="307" y="815"/>
      <point x="234" y="773" type="curve" smooth="yes"/>
      <point x="215" y="762"/>
      <point x="196" y="757"/>
      <point x="179" y="757" type="curve" smooth="yes"/>
      <point x="125" y="758"/>
      <point x="83" y="801"/>
      <point x="83" y="858" type="curve" smooth="yes"/>
      <point x="83" y="889"/>
      <point x="98" y="922"/>
      <point x="136" y="943" type="curve" smooth="yes"/>
      <point x="209" y="985"/>
      <point x="332" y="1011"/>
      <point x="413" y="1035" type="curve"/>
      <point x="332" y="1059"/>
      <point x="209" y="1085"/>
      <point x="136" y="1127" type="curve" smooth="yes"/>
      <point x="98" y="1148"/>
      <point x="83" y="1180"/>
    </contour>
  </outline>
</glyph>
<glyph name="comma" format="1">
  <advance width="401"/>
  <unicode hex="002C"/>
  <outline>
    <contour>
      <point x="103" y="-232" type="line"/>
      <point x="132" y="279" type="line"/>
      <point x="325" y="279" type="line"/>
      <point x="212" y="-232" type="line"/>
    </contour>
  </outline>
</glyph>
<glyph name="hyphen" format="1">
  <advance width="792"/>
  <unicode hex="002D"/>
  <outline>
    <contour>
      <point x="98" y="562" type="line"/>
      <point x="98" y="717" type="line"/>
      <point x="694" y="717" type="line"/>
      <point x="694" y="562" type="line"/>
    </contour>
  </outline>
</glyph>
<glyph name="zero" format="1">
  <advance width="1320"/>
  <unicode hex="0030"/>
  <outline>
    <contour>
      <point x="667" y="118" type="curve" smooth="yes"/>
      <point x="1002" y="118"/>
      <point x="1034" y="408"/>
      <point x="1034" y="732" type="curve" smooth="yes"/>
      <point x="1034" y="1071"/>
      <point x="991" y="1362"/>
      <point x="667" y="1362" type="curve" smooth="yes"/>
      <point x="341" y="1362"/>
      <point x="300" y="1078"/>
      <point x="300" y="732" type="curve" smooth="yes"/>
      <point x="300" y="392"/>
      <point x="332" y="118"/>
    </contour>
    <contour>
      <point x="667" y="-23" type="curve" smooth="yes"/>
      <point x="252" y="-23"/>
      <point x="115" y="256"/>
      <point x="115" y="725" type="curve" smooth="yes"/>
      <point x="115" y="1212"/>
      <point x="243" y="1503"/>
      <point x="667" y="1503" type="curve" smooth="yes"/>
      <point x="1081" y="1503"/>
      <point x="1218" y="1218"/>
      <point x="1218" y="736" type="curve" smooth="yes"/>
      <point x="1218" y="263"/>
      <point x="1096" y="-23"/>
    </contour>
  </outline>
</glyph>
<glyph name="eight" format="1">
  <advance width="1254"/>
  <unicode hex="0038"/>
  <outline>
    <contour>
      <point x="627" y="-23" type="curve" smooth="yes"/>
      <point x="294" y="-23"/>
      <point x="96" y="167"/>
      <point x="96" y="358" type="curve" smooth="yes"/>
      <point x="96" y="581"/>
      <point x="311" y="712"/>
      <point x="472" y="794" type="curve"/>
      <point x="220" y="924"/>
      <point x="139" y="1042"/>
      <point x="139" y="1169" type="curve" smooth="yes"/>
      <point x="139" y="1356"/>
      <point x="340" y="1503"/>
      <point x="629" y="1503" type="curve" smooth="yes"/>
      <point x="934" y="1503"/>
      <point x="1121" y="1365"/>
      <point x="1121" y="1178" type="curve" smooth="yes"/>
      <point x="1121" y="1022"/>
      <point x="1051" y="899"/>
      <point x="845" y="780" type="curve"/>
      <point x="1006" y="701"/>
      <point x="1158" y="583"/>
      <point x="1158" y="419" type="curve" smooth="yes"/>
      <point x="1158" y="161"/>
      <point x="960" y="-23"/>
    </contour>
    <contour>
      <point x="636" y="118" type="curve" smooth="yes"/>
      <point x="905" y="118"/>
      <point x="974" y="271"/>
      <point x="974" y="379" type="curve" smooth="yes"/>
      <point x="974" y="508"/>
      <point x="850" y="627"/>
      <point x="576" y="727" type="curve"/>
      <point x="502" y="688"/>
      <point x="271" y="553"/>
      <point x="271" y="369" type="curve" smooth="yes"/>
      <point x="271" y="207"/>
      <point x="385" y="118"/>
    </contour>
    <contour>
      <point x="740" y="835" type="curve"/>
      <point x="784" y="873"/>
      <point x="956" y="991"/>
      <point x="956" y="1172" type="curve" smooth="yes"/>
      <point x="956" y="1302"/>
      <point x="814" y="1362"/>
      <point x="643" y="1362" type="curve" smooth="yes"/>
      <point x="554" y="1362"/>
      <point x="324" y="1351"/>
      <point x="324" y="1164" type="curve" smooth="yes"/>
      <point x="324" y="1041"/>
      <point x="580" y="892"/>
    </contour>
  </outline>
</glyph>
<glyph name="greater" format="1">
  <advance width="1114"/>
  <unicode hex="003E"/>
  <outline>
    <contour>
      <point x="6" y="-14" type="line"/>
      <point x="6" y="165" type="line"/>
      <point x="923" y="575" type="line"/>
      <point x="6" y="989" type="line"/>
      <point x="6" y="1157" type="line"/>
      <point x="1114" y="640" type="line"/>
      <point x="1114" y="502" type="line"/>
    </contour>
  </outline>
</glyph>
<glyph name="F" format="1">
  <advance width="994"/>
  <unicode hex="0046"/>
  <outline>
    <contour>
      <point x="135" y="0" type="line"/>
      <point x="135" y="1481" type="line"/>
      <point x="965" y="1481" type="line"/>
      <point x="965" y="1343" type="line"/>
      <point x="318" y="1343" type="line"/>
      <point x="318" y="855" type="line"/>
      <point x="907" y="855" type="line"/>
      <point x="907" y="717" type="line"/>
      <point x="318" y="717" type="line"/>
      <point x="318" y="0" type="line"/>
    </contour>
  </outline>
</glyph>
<glyph name="H" format="1">
  <advance width="1390"/>
  <unicode hex="0048"/>
  <outline>
    <contour>
      <point x="135" y="0" type="line"/>
      <point x="135" y="1481" type="line"/>
      <point x="318" y="1481" type="line"/>
      <point x="318" y="830" type="line"/>
      <point x="1072" y="830" type="line"/>
      <point x="1072" y="1481" type="line"/>
      <point x="1255" y="1481" type="line"/>
      <point x="1255" y="0" type="line"/>
      <point x="1072" y="0" type="line"/>
      <point x="1072" y="697" type="line"/>
      <point x="318" y="697" type="line"/>
      <point x="318" y="0" type="line"/>
    </contour>
  </outline>
</glyph>
<glyph name="Q" format="1">
  <advance width="1554"/>
  <unicode hex="0051"/>
  <outline>
    <contour>
      <point x="936" y="139" type="line"/>
      <point x="1195" y="213"/>
      <point x="1274" y="473"/>
      <point x="1274" y="740" type="curve" smooth="yes"/>
      <point x="1274" y="1054"/>
      <point x="1165" y="1362"/>
      <point x="777" y="1362" type="curve" smooth="yes"/>
      <point x="378" y="1362"/>
      <point x="278" y="1041"/>
      <point x="278" y="740" type="curve" smooth="yes"/>
      <point x="278" y="423"/>
      <point x="379" y="120"/>
      <point x="773" y="118" type="curve"/>
      <point x="715" y="260" type="line"/>
      <point x="887" y="260" type="line"/>
    </contour>
    <contour>
      <point x="777" y="-23" type="curve" smooth="yes"/>
      <point x="315" y="-23"/>
      <point x="95" y="279"/>
      <point x="95" y="740" type="curve" smooth="yes"/>
      <point x="95" y="1204"/>
      <point x="316" y="1503"/>
      <point x="777" y="1503" type="curve" smooth="yes"/>
      <point x="1238" y="1503"/>
      <point x="1459" y="1205"/>
      <point x="1459" y="740" type="curve" smooth="yes"/>
      <point x="1459" y="359"/>
      <point x="1307" y="84"/>
      <point x="991" y="2" type="curve"/>
      <point x="1133" y="-350" type="line"/>
      <point x="987" y="-407" type="line"/>
      <point x="830" y="-22" type="line"/>
      <point x="813" y="-23"/>
      <point x="795" y="-23"/>
    </contour>
  </outline>
</glyph>
<glyph name="S" format="1">
  <advance width="1209"/>
  <unicode hex="0053"/>
  <outline>
    <contour>
      <point x="591" y="-23" type="curve" smooth="yes"/>
      <point x="385" y="-23"/>
      <point x="211" y="37"/>
      <point x="82" y="126" type="curve"/>
      <point x="106" y="266" type="line"/>
      <point x="135" y="266" type="line"/>
      <point x="251" y="162"/>
      <point x="452" y="118"/>
      <point x="587" y="118" type="curve" smooth="yes"/>
      <point x="869" y="118"/>
      <point x="960" y="248"/>
      <point x="960" y="373" type="curve" smooth="yes"/>
      <point x="960" y="539"/>
      <point x="909" y="602"/>
      <point x="553" y="686" type="curve" smooth="yes"/>
      <point x="245" y="758"/>
      <point x="112" y="864"/>
      <point x="112" y="1098" type="curve" smooth="yes"/>
      <point x="112" y="1349"/>
      <point x="339" y="1503"/>
      <point x="634" y="1503" type="curve" smooth="yes"/>
      <point x="798" y="1503"/>
      <point x="960" y="1469"/>
      <point x="1082" y="1397" type="curve"/>
      <point x="1067" y="1259" type="line"/>
      <point x="1050" y="1259" type="line"/>
      <point x="979" y="1305"/>
      <point x="811" y="1362"/>
      <point x="659" y="1362" type="curve" smooth="yes"/>
      <point x="393" y="1362"/>
      <point x="280" y="1233"/>
      <point x="280" y="1102" type="curve" smooth="yes"/>
      <point x="280" y="988"/>
      <point x="323" y="899"/>
      <point x="610" y="834" type="curve" smooth="yes"/>
      <point x="976" y="752"/>
      <point x="1134" y="665"/>
      <point x="1134" y="387" type="curve" smooth="yes"/>
      <point x="1134" y="115"/>
      <point x="895" y="-23"/>
    </contour>
  </outline>
</glyph>
<glyph name="Z" format="1">
  <advance width="1101"/>
  <unicode hex="005A"/>
  <outline>
    <contour>
      <point x="91" y="0" type="line"/>
      <point x="91" y="144" type="line"/>
      <point x="834" y="1344" type="line"/>
      <point x="98" y="1344" type="line"/>
      <point x="98" y="1481" type="line"/>
      <point x="1021" y="1481" type="line"/>
      <point x="1021" y="1345" type="line"/>
      <point x="284" y="137" type="line"/>
      <point x="1045" y="137" type="line"/>
      <point x="1045" y="0" type="line"/>
    </contour>
  </outline>
</glyph>
<glyph name="c" format="1">
  <advance width="1025"/>
  <unicode hex="0063"/>
  <outline>
    <contour>
      <point x="623" y="-21" type="curve" smooth="yes"/>
      <point x="317" y="-21"/>
      <point x="93" y="144"/>
      <point x="93" y="512" type="curve" smooth="yes"/>
      <point x="93" y="880"/>
      <point x="331" y="1058"/>
      <point x="606" y="1058" type="curve" smooth="yes"/>
      <point x="728" y="1058"/>
      <point x="836" y="1037"/>
      <point x="961" y="966" type="curve"/>
      <point x="925" y="829" type="line"/>
      <point x="890" y="853"/>
      <point x="770" y="918"/>
      <point x="623" y="918" type="curve" smooth="yes"/>
      <point x="412" y="918"/>
      <point x="270" y="763"/>
      <point x="270" y="511" type="curve" smooth="yes"/>
      <point x="270" y="272"/>
      <point x="396" y="119"/>
      <point x="623" y="119" type="curve" smooth="yes"/>
      <point x="768" y="119"/>
      <point x="879" y="180"/>
      <point x="919" y="204" type="curve"/>
      <point x="952" y="67" type="line"/>
      <point x="873" y="18"/>
      <point x="764" y="-21"/>
    </contour>
  </outline>
</glyph>
<glyph name="d" format="1">
  <advance width="1151"/>
  <unicode hex="0064"/>
  <outline>
    <contour>
      <point x="547" y="-21" type="curve"/>
      <point x="303" y="-21"/>
      <point x="93" y="156"/>
      <point x="93" y="511" type="curve" smooth="yes"/>
      <point x="93" y="869"/>
      <point x="293" y="1058"/>
      <point x="531" y="1058" type="curve" smooth="yes"/>
      <point x="638" y="1058"/>
      <point x="786" y="1022"/>
      <point x="848" y="911" type="curve"/>
      <point x="848" y="1481" type="line"/>
      <point x="1030" y="1481" type="line"/>
      <point x="1030" y="0" type="line"/>
      <point x="848" y="0" type="line"/>
      <point x="848" y="142" type="line"/>
      <point x="797" y="40"/>
      <point x="675" y="-15"/>
    </contour>
    <contour>
      <point x="573" y="119" type="curve" smooth="yes"/>
      <point x="704" y="119"/>
      <point x="827" y="195"/>
      <point x="848" y="247" type="curve"/>
      <point x="848" y="793" type="line"/>
      <point x="823" y="848"/>
      <point x="700" y="918"/>
      <point x="571" y="918" type="curve" smooth="yes"/>
      <point x="398" y="918"/>
      <point x="270" y="776"/>
      <point x="270" y="521" type="curve" smooth="yes"/>
      <point x="270" y="284"/>
      <point x="365" y="119"/>
    </contour>
  </outline>
</glyph>
<glyph name="q" format="1">
  <advance width="1151"/>
  <unicode hex="0071"/>
  <outline>
    <contour>
      <point x="848" y="-388" type="line"/>
      <point x="848" y="112" type="line"/>
      <point x="777" y="21"/>
      <point x="671" y="-21"/>
      <point x="549" y="-21" type="curve" smooth="yes"/>
      <point x="293" y="-21"/>
      <point x="93" y="170"/>
      <point x="93" y="529" type="curve" smooth="yes"/>
      <point x="93" y="866"/>
      <point x="271" y="1058"/>
      <point x="541" y="1058" type="curve" smooth="yes"/>
      <point x="663" y="1058"/>
      <point x="785" y="1013"/>
      <point x="848" y="913" type="curve"/>
      <point x="848" y="1032" type="line"/>
      <point x="1031" y="1032" type="line"/>
      <point x="1031" y="-388" type="line"/>
    </contour>
    <contour>
      <point x="571" y="119" type="curve" smooth="yes"/>
      <point x="633" y="119"/>
      <point x="775" y="145"/>
      <point x="848" y="236" type="curve"/>
      <point x="848" y="792" type="line"/>
      <point x="776" y="887"/>
      <point x="634" y="918"/>
      <point x="553" y="918" type="curve" smooth="yes"/>
      <point x="326" y="918"/>
      <point x="274" y="731"/>
      <point x="274" y="515" type="curve" smooth="yes"/>
      <point x="274" y="259"/>
      <point x="386" y="119"/>
    </contour>
  </outline>
</glyph>
<glyph name="w" format="1">
  <advance width="1609"/>
  <unicode hex="0077"/>
  <outline>
    <contour>
      <point x="348" y="0" type="line"/>
      <point x="42" y="1032" type="line"/>
      <point x="223" y="1032" type="line"/>
      <point x="417" y="333" type="line"/>
      <point x="461" y="155" type="line"/>
      <point x="462" y="155" type="line"/>
      <point x="506" y="333" type="line"/>
      <point x="696" y="1032" type="line"/>
      <point x="921" y="1032" type="line"/>
      <point x="1112" y="340" type="line"/>
      <point x="1155" y="164" type="line"/>
      <point x="1198" y="339" type="line"/>
      <point x="1380" y="1032" type="line"/>
      <point x="1567" y="1032" type="line"/>
      <point x="1259" y="0" type="line"/>
      <point x="1046" y="0" type="line"/>
      <point x="813" y="875" type="line"/>
      <point x="810" y="875" type="line"/>
      <point x="566" y="0" type="line"/>
    </contour>
  </outline>
</glyph>
<glyph name="x" format="1">
  <advance width="1131"/>
  <unicode hex="0078"/>
  <outline>
    <contour>
      <point x="38" y="0" type="line"/>
      <point x="459" y="513" type="line"/>
      <point x="34" y="1032" type="line"/>
      <point x="244" y="1032" type="line"/>
      <point x="485" y="727" type="line"/>
      <point x="562" y="633" type="line"/>
      <point x="638" y="727" type="line"/>
      <point x="880" y="1032" type="line"/>
      <point x="1097" y="1032" type="line"/>
      <point x="669" y="511" type="line"/>
      <point x="1093" y="0" type="line"/>
      <point x="884" y="0" type="line"/>
      <point x="618" y="331" type="line"/>
      <point x="566" y="400" type="line"/>
      <point x="513" y="331" type="line"/>
      <point x="250" y="0" type="line"/>
    </contour>
  </outline>
</glyph>
<glyph name="cent" format="1">
  <advance width="997"/>
  <unicode hex="00A2"/>
  <outline>
    <contour>
      <point x="477" y="915" type="line"/>
      <point x="292" y="894"/>
      <point x="170" y="744"/>
      <point x="170" y="511" type="curve" smooth="yes"/>
      <point x="170" y="289"/>
      <point x="279" y="141"/>
      <point x="477" y="121" type="curve"/>
    </contour>
    <contour>
      <point x="583" y="1052" type="line"/>
      <point x="675" y="1044"/>
      <point x="763" y="1020"/>
      <point x="861" y="966" type="curve"/>
      <point x="825" y="829" type="line"/>
      <point x="795" y="850"/>
      <point x="702" y="900"/>
      <point x="583" y="914" type="curve"/>
      <point x="583" y="122" type="line"/>
      <point x="698" y="135"/>
      <point x="785" y="183"/>
      <point x="819" y="204" type="curve"/>
      <point x="852" y="67" type="line"/>
      <point x="785" y="25"/>
      <point x="695" y="-10"/>
      <point x="583" y="-19" type="curve"/>
      <point x="583" y="-290" type="line"/>
      <point x="477" y="-290" type="line"/>
      <point x="477" y="-20" type="line"/>
      <point x="195" y="-4"/>
      <point x="-7" y="163"/>
      <point x="-7" y="512" type="curve" smooth="yes"/>
      <point x="-7" y="865"/>
      <point x="214" y="1042"/>
      <point x="477" y="1054" type="curve"/>
      <point x="477" y="1304" type="line"/>
      <point x="583" y="1304" type="line"/>
    </contour>
  </outline>
</glyph>
<glyph name="logicalnot" format="1">
  <advance width="1182"/>
  <unicode hex="00AC"/>
  <outline>
    <contour>
      <point x="956" y="260" type="line"/>
      <point x="956" y="650" type="line"/>
      <point x="94" y="650" type="line"/>
      <point x="94" y="776" type="line"/>
      <point x="1084" y="776" type="line"/>
      <point x="1084" y="260" type="line"/>
    </contour>
  </outline>
</glyph>
<glyph name="plusminus" format="1">
  <advance width="1189"/>
  <unicode hex="00B1"/>
  <outline>
    <contour>
      <point x="521" y="286" type="line"/>
      <point x="521" y="643" type="line"/>
      <point x="148" y="643" type="line"/>
      <point x="148" y="778" type="line"/>
      <point x="521" y="778" type="line"/>
      <point x="521" y="1122" type="line"/>
      <point x="658" y="1122" type="line"/>
      <point x="658" y="778" type="line"/>
      <point x="1042" y="778" type="line"/>
      <point x="1042" y="643" type="line"/>
      <point x="658" y="643" type="line"/>
      <point x="658" y="286" type="line"/>
    </contour>
    <contour>
      <point x="162" y="0" type="line"/>
      <point x="162" y="136" type="line"/>
      <point x="1024" y="136" type="line"/>
      <point x="1024" y="0" type="line"/>
    </contour>
  </outline>
</glyph>
<glyph name="cedilla" format="1">
  <advance width="561"/>
  <unicode hex="00B8"/>
  <outline>
    <contour>
      <point x="240" y="-497" type="curve" smooth="yes"/>
      <point x="190" y="-497"/>
      <point x="99" y="-478"/>
      <point x="49" y="-454" type="curve"/>
      <point x="81" y="-366" type="line"/>
      <point x="112" y="-366" type="line"/>
      <point x="135" y="-392"/>
      <point x="191" y="-412"/>
      <point x="246" y="-412" type="curve" smooth="yes"/>
      <point x="323" y="-412"/>
      <point x="395" y="-377"/>
      <point x="395" y="-280" type="curve" smooth="yes"/>
      <point x="395" y="-231"/>
      <point x="359" y="-184"/>
      <point x="286" y="-184" type="curve" smooth="yes"/>
      <point x="268" y="-184"/>
      <point x="247" y="-189"/>
      <point x="225" y="-195" type="curve"/>
      <point x="209" y="-190"/>
      <point x="195" y="-185"/>
      <point x="178" y="-182" type="curve"/>
      <point x="241" y="2" type="line"/>
      <point x="321" y="2" type="line"/>
      <point x="281" y="-115" type="line"/>
      <point x="434" y="-119"/>
      <point x="505" y="-181"/>
      <point x="505" y="-278" type="curve" smooth="yes"/>
      <point x="505" y="-395"/>
      <point x="436" y="-497"/>
    </contour>
  </outline>
</glyph>
<glyph name="onequarter" format="1">
  <advance width="1359"/>
  <unicode hex="00BC"/>
  <outline>
    <contour>
      <point x="1165" y="0" type="line"/>
      <point x="1165" y="120" type="line"/>
      <point x="755" y="120" type="line"/>
      <point x="755" y="223" type="line"/>
      <point x="1103" y="818" type="line"/>
      <point x="1274" y="818" type="line"/>
      <point x="1274" y="223" type="line"/>
      <point x="1360" y="223" type="line"/>
      <point x="1360" y="120" type="line"/>
      <point x="1274" y="120" type="line"/>
      <point x="1274" y="0" type="line"/>
    </contour>
    <contour>
      <point x="247" y="0" type="line"/>
      <point x="1077" y="1429" type="line"/>
      <point x="1206" y="1429" type="line"/>
      <point x="374" y="0" type="line"/>
    </contour>
    <contour>
      <point x="873" y="223" type="line"/>
      <point x="1165" y="223" type="line"/>
      <point x="1165" y="728" type="line"/>
    </contour>
    <contour>
      <point x="-30" y="552" type="line"/>
      <point x="-30" y="653" type="line"/>
      <point x="111" y="653" type="line"/>
      <point x="111" y="1240" type="line"/>
      <point x="-44" y="1194" type="line"/>
      <point x="-44" y="1277" type="line"/>
      <point x="37" y="1296"/>
      <point x="74" y="1332"/>
      <point x="95" y="1374" type="curve"/>
      <point x="245" y="1374" type="line"/>
      <point x="245" y="653" type="line"/>
      <point x="386" y="653" type="line"/>
      <point x="386" y="552" type="line"/>
    </contour>
  </outline>
</glyph>
<glyph name="onehalf" format="1">
  <advance width="1539"/>
  <unicode hex="00BD"/>
  <outline>
    <contour>
      <point x="263" y="0" type="line"/>
      <point x="1095" y="1429" type="line"/>
      <point x="1222" y="1429" type="line"/>
      <point x="390" y="0" type="line"/>
    </contour>
    <contour>
      <point x="921" y="0" type="line"/>
      <point x="921" y="98" type="line"/>
      <point x="1085" y="258"/>
      <point x="1286" y="475"/>
      <point x="1286" y="601" type="curve" smooth="yes"/>
      <point x="1286" y="680"/>
      <point x="1254" y="728"/>
      <point x="1140" y="728" type="curve" smooth="yes"/>
      <point x="1083" y="728"/>
      <point x="988" y="690"/>
      <point x="957" y="661" type="curve"/>
      <point x="933" y="756" type="line"/>
      <point x="969" y="792"/>
      <point x="1077" y="830"/>
      <point x="1159" y="830" type="curve" smooth="yes"/>
      <point x="1318" y="830"/>
      <point x="1403" y="742"/>
      <point x="1403" y="604" type="curve" smooth="yes"/>
      <point x="1403" y="443"/>
      <point x="1266" y="293"/>
      <point x="1071" y="100" type="curve"/>
      <point x="1406" y="100" type="line"/>
      <point x="1406" y="0" type="line"/>
    </contour>
    <contour>
      <point x="17" y="552" type="line"/>
      <point x="17" y="653" type="line"/>
      <point x="158" y="653" type="line"/>
      <point x="158" y="1240" type="line"/>
      <point x="3" y="1194" type="line"/>
      <point x="3" y="1277" type="line"/>
      <point x="84" y="1296"/>
      <point x="121" y="1332"/>
      <point x="142" y="1374" type="curve"/>
      <point x="292" y="1374" type="line"/>
      <point x="292" y="653" type="line"/>
      <point x="433" y="653" type="line"/>
      <point x="433" y="552" type="line"/>
    </contour>
  </outline>
</glyph>
<glyph name="AE" format="1">
  <advance width="1863"/>
  <unicode hex="00C6"/>
  <outline>
    <contour>
      <point x="23" y="0" type="line"/>
      <point x="910" y="1481" type="line"/>
      <point x="1753" y="1481" type="line"/>
      <point x="1753" y="1344" type="line"/>
      <point x="1182" y="1344" type="line"/>
      <point x="1182" y="835" type="line"/>
      <point x="1672" y="835" type="line"/>
      <point x="1672" y="698" type="line"/>
      <point x="1182" y="698" type="line"/>
      <point x="1182" y="137" type="line"/>
      <point x="1751" y="137" type="line"/>
      <point x="1751" y="0" type="line"/>
      <point x="1000" y="0" type="line"/>
      <point x="1000" y="351" type="line"/>
      <point x="431" y="351" type="line"/>
      <point x="219" y="0" type="line"/>
    </contour>
    <contour>
      <point x="509" y="487" type="line"/>
      <point x="1000" y="487" type="line"/>
      <point x="1000" y="1330" type="line"/>
      <point x="997" y="1330" type="line"/>
    </contour>
  </outline>
</glyph>
<glyph name="multiply" format="1">
  <advance width="1051"/>
  <unicode hex="00D7"/>
  <outline>
    <contour>
      <point x="182" y="40" type="line"/>
      <point x="76" y="146" type="line"/>
      <point x="421" y="487" type="line"/>
      <point x="76" y="830" type="line"/>
      <point x="182" y="937" type="line"/>
      <point x="524" y="593" type="line"/>
      <point x="866" y="937" type="line"/>
      <point x="974" y="830" type="line"/>
      <point x="628" y="487" type="line"/>
      <point x="974" y="146" type="line"/>
      <point x="866" y="40" type="line"/>
      <point x="524" y="385" type="line"/>
    </contour>
  </outline>
</glyph>
<glyph name="ae" format="1">
  <advance width="1758"/>
  <unicode hex="00E6"/>
  <outline>
    <contour>
      <point x="421" y="-21" type="curve" smooth="yes"/>
      <point x="270" y="-21"/>
      <point x="73" y="59"/>
      <point x="73" y="297" type="curve" smooth="yes"/>
      <point x="73" y="469"/>
      <point x="192" y="564"/>
      <point x="526" y="591" type="curve"/>
      <point x="593" y="594"/>
      <point x="678" y="596"/>
      <point x="760" y="596" type="curve"/>
      <point x="755" y="792"/>
      <point x="729" y="918"/>
      <point x="502" y="918" type="curve" smooth="yes"/>
      <point x="391" y="918"/>
      <point x="263" y="888"/>
      <point x="175" y="841" type="curve"/>
      <point x="138" y="973" type="line"/>
      <point x="204" y="1022"/>
      <point x="373" y="1058"/>
      <point x="487" y="1058" type="curve" smooth="yes"/>
      <point x="660" y="1058"/>
      <point x="799" y="1020"/>
      <point x="863" y="844" type="curve"/>
      <point x="929" y="976"/>
      <point x="1095" y="1058"/>
      <point x="1219" y="1058" type="curve" smooth="yes"/>
      <point x="1534" y="1058"/>
      <point x="1673" y="811"/>
      <point x="1673" y="515" type="curve" smooth="yes"/>
      <point x="1673" y="480" type="line"/>
      <point x="929" y="480" type="line"/>
      <point x="930" y="267"/>
      <point x="1061" y="119"/>
      <point x="1287" y="119" type="curve" smooth="yes"/>
      <point x="1450" y="119"/>
      <point x="1550" y="183"/>
      <point x="1589" y="219" type="curve"/>
      <point x="1610" y="219" type="line"/>
      <point x="1655" y="100" type="line"/>
      <point x="1587" y="44"/>
      <point x="1482" y="-21"/>
      <point x="1271" y="-21" type="curve" smooth="yes"/>
      <point x="1032" y="-21"/>
      <point x="895" y="127"/>
      <point x="851" y="234" type="curve"/>
      <point x="779" y="66"/>
      <point x="623" y="-21"/>
    </contour>
    <contour>
      <point x="419" y="119" type="curve" smooth="yes"/>
      <point x="656" y="119"/>
      <point x="757" y="236"/>
      <point x="760" y="480" type="curve"/>
      <point x="300" y="479"/>
      <point x="243" y="398"/>
      <point x="243" y="300" type="curve" smooth="yes"/>
      <point x="243" y="191"/>
      <point x="303" y="119"/>
    </contour>
    <contour>
      <point x="932" y="596" type="curve"/>
      <point x="1498" y="596" type="line"/>
      <point x="1496" y="736"/>
      <point x="1427" y="918"/>
      <point x="1233" y="918" type="curve" smooth="yes"/>
      <point x="1032" y="918"/>
      <point x="947" y="742"/>
    </contour>
  </outline>
</glyph>
<glyph name="gcommaaccent" format="1">
  <advance width="1151"/>
  <unicode hex="0123"/>
  <outline>
    <component base="g"/>
    <contour>
      <point x="745" y="1746" type="line"/>
      <point x="646" y="1260" type="line"/>
      <point x="453" y="1260" type="line"/>
      <point x="618" y="1746" type="line"/>
    </contour>
  </outline>
</glyph>
<glyph name="oe" format="1">
  <advance width="1909"/>
  <unicode hex="0153"/>
  <outline>
    <contour>
      <point x="588" y="-21" type="curve" smooth="yes"/>
      <point x="421" y="-21"/>
      <point x="93" y="69"/>
      <point x="93" y="515" type="curve" smooth="yes"/>
      <point x="93" y="1013"/>
      <point x="482" y="1058"/>
      <point x="582" y="1058" type="curve" smooth="yes"/>
      <point x="799" y="1058"/>
      <point x="945" y="932"/>
      <point x="995" y="799" type="curve"/>
      <point x="1039" y="919"/>
      <point x="1174" y="1058"/>
      <point x="1375" y="1058" type="curve" smooth="yes"/>
      <point x="1681" y="1058"/>
      <point x="1824" y="816"/>
      <point x="1824" y="505" type="curve" smooth="yes"/>
      <point x="1824" y="475" type="line"/>
      <point x="1095" y="475" type="line"/>
      <point x="1095" y="303"/>
      <point x="1194" y="119"/>
      <point x="1443" y="119" type="curve" smooth="yes"/>
      <point x="1588" y="119"/>
      <point x="1709" y="191"/>
      <point x="1740" y="228" type="curve"/>
      <point x="1761" y="228" type="line"/>
      <point x="1805" y="101" type="line"/>
      <point x="1746" y="48"/>
      <point x="1633" y="-21"/>
      <point x="1419" y="-21" type="curve" smooth="yes"/>
      <point x="1246" y="-21"/>
      <point x="1074" y="79"/>
      <point x="1001" y="217" type="curve"/>
      <point x="929" y="83"/>
      <point x="794" y="-21"/>
    </contour>
    <contour>
      <point x="591" y="119" type="curve" smooth="yes"/>
      <point x="731" y="119"/>
      <point x="907" y="210"/>
      <point x="907" y="512" type="curve" smooth="yes"/>
      <point x="907" y="845"/>
      <point x="763" y="918"/>
      <point x="584" y="918" type="curve" smooth="yes"/>
      <point x="462" y="918"/>
      <point x="270" y="833"/>
      <point x="270" y="513" type="curve" smooth="yes"/>
      <point x="270" y="215"/>
      <point x="457" y="119"/>
    </contour>
    <contour>
      <point x="1102" y="596" type="curve"/>
      <point x="1650" y="596" type="line"/>
      <point x="1645" y="732"/>
      <point x="1580" y="918"/>
      <point x="1382" y="918" type="curve" smooth="yes"/>
      <point x="1172" y="918"/>
      <point x="1117" y="713"/>
    </contour>
  </outline>
</glyph>
<glyph name="uni02C9" format="1">
  <advance width="989"/>
  <unicode hex="02C9"/>
  <outline>
    <contour>
      <point x="216" y="1159" type="line"/>
      <point x="216" y="1293" type="line"/>
      <point x="771" y="1293" type="line"/>
      <point x="771" y="1159" type="line"/>
    </contour>
  </outline>
</glyph>
<glyph name="ring" format="1">
  <advance width="659"/>
  <unicode hex="02DA"/>
  <outline>
    <contour>
      <point x="330" y="1049" type="curve" smooth="yes"/>
      <point x="413" y="1049"/>
      <point x="474" y="1114"/>
      <point x="474" y="1196" type="curve" smooth="yes"/>
      <point x="474" y="1276"/>
      <point x="413" y="1344"/>
      <point x="330" y="1344" type="curve" smooth="yes"/>
      <point x="250" y="1344"/>
      <point x="186" y="1278"/>
      <point x="186" y="1196" type="curve" smooth="yes"/>
      <point x="186" y="1112"/>
      <point x="247" y="1049"/>
    </contour>
    <contour>
      <point x="330" y="977" type="curve" smooth="yes"/>
      <point x="202" y="977"/>
      <point x="99" y="1074"/>
      <point x="99" y="1197" type="curve" smooth="yes"/>
      <point x="99" y="1319"/>
      <point x="204" y="1416"/>
      <point x="330" y="1416" type="curve" smooth="yes"/>
      <point x="459" y="1416"/>
      <point x="561" y="1320"/>
      <point x="561" y="1197" type="curve" smooth="yes"/>
      <point x="561" y="1072"/>
      <point x="459" y="977"/>
    </contour>
  </outline>
</glyph>
<glyph name="uni0307" format="1">
  <advance width="548"/>
  <unicode hex="0307"/>
  <outline>
    <contour>
      <point x="275" y="294" type="curve" smooth="yes"/>
      <point x="191" y="294"/>
      <point x="150" y="355"/>
      <point x="150" y="415" type="curve" smooth="yes"/>
      <point x="150" y="476"/>
      <point x="189" y="536"/>
      <point x="275" y="536" type="curve" smooth="yes"/>
      <point x="358" y="536"/>
      <point x="398" y="475"/>
      <point x="398" y="415" type="curve" smooth="yes"/>
      <point x="398" y="355"/>
      <point x="359" y="294"/>
    </contour>
  </outline>
</glyph>
<glyph name="endash" format="1">
  <advance width="1471"/>
  <unicode hex="2013"/>
  <outline>
    <contour>
      <point x="98" y="572" type="line"/>
      <point x="98" y="713" type="line"/>
      <point x="1373" y="713" type="line"/>
      <point x="1373" y="572" type="line"/>
    </contour>
  </outline>
</glyph>
<glyph name="quotedblleft" format="1">
  <advance width="693"/>
  <unicode hex="201C"/>
  <outline>
    <contour>
      <point x="216" y="1012" type="line"/>
      <point x="42" y="1481" type="line"/>
      <point x="234" y="1481" type="line"/>
      <point x="331" y="1012" type="line"/>
    </contour>
    <contour>
      <point x="526" y="1012" type="line"/>
      <point x="353" y="1481" type="line"/>
      <point x="545" y="1481" type="line"/>
      <point x="641" y="1012" type="line"/>
    </contour>
  </outline>
</glyph>
<glyph name="quotedblbase" format="1">
  <advance width="833"/>
  <unicode hex="201E"/>
  <outline>
    <contour>
      <point x="108" y="-242" type="line"/>
      <point x="198" y="244" type="line"/>
      <point x="391" y="244" type="line"/>
      <point x="226" y="-242" type="line"/>
    </contour>
    <contour>
      <point x="427" y="-242" type="line"/>
      <point x="518" y="244" type="line"/>
      <point x="712" y="244" type="line"/>
      <point x="545" y="-242" type="line"/>
    </contour>
  </outline>
</glyph>
<glyph name="dagger" format="1">
  <advance width="1080"/>
  <unicode hex="2020"/>
  <outline>
    <contour>
      <point x="454" y="0" type="line"/>
      <point x="454" y="920" type="line"/>
      <point x="90" y="920" type="line"/>
      <point x="90" y="1058" type="line"/>
      <point x="454" y="1058" type="line"/>
      <point x="454" y="1481" type="line"/>
      <point x="636" y="1481" type="line"/>
      <point x="636" y="1058" type="line"/>
      <point x="991" y="1058" type="line"/>
      <point x="991" y="920" type="line"/>
      <point x="636" y="920" type="line"/>
      <point x="636" y="0" type="line"/>
    </contour>
  </outline>
</glyph>
<glyph name="minus" format="1">
  <advance width="1171"/>
  <unicode hex="2212"/>
  <outline>
    <contour>
      <point x="98" y="411" type="line"/>
      <point x="98" y="564" type="line"/>
      <point x="1073" y="564" type="line"/>
      <point x="1073" y="411" type="line"/>
    </contour>
  </outline>
</glyph>
<glyph name="uni2215" format="1">
  <advance width="862"/>
  <unicode hex="2215"/>
  <outline>
    <contour>
      <point x="-10" y="-1" type="line"/>
      <point x="701" y="1427" type="line"/>
      <point x="872" y="1427" type="line"/>
      <point x="165" y="-1" type="line"/>
    </contour>
  </outline>
</glyph>
<glyph name="uniFB00" format="1">
  <advance width="1389"/>
  <unicode hex="FB00"/>
  <outline>
    <contour>
      <point x="888" y="0" type="line"/>
      <point x="888" y="907" type="line"/>
      <point x="388" y="907" type="line"/>
      <point x="388" y="0" type="line"/>
      <point x="205" y="0" type="line"/>
      <point x="205" y="907" type="line"/>
      <point x="25" y="907" type="line"/>
      <point x="25" y="1032" type="line"/>
      <point x="205" y="1032" type="line"/>
      <point x="205" y="1069" type="line" smooth="yes"/>
      <point x="205" y="1320"/>
      <point x="274" y="1433"/>
      <point x="540" y="1433" type="curve" smooth="yes"/>
      <point x="614" y="1433"/>
      <point x="618" y="1428"/>
      <point x="672" y="1422" type="curve"/>
      <point x="672" y="1281" type="line"/>
      <point x="672" y="1281"/>
      <point x="610" y="1292"/>
      <point x="570" y="1292" type="curve" smooth="yes"/>
      <point x="424" y="1292"/>
      <point x="387" y="1257"/>
      <point x="387" y="1032" type="curve"/>
      <point x="888" y="1032" type="line"/>
      <point x="888" y="1069" type="line" smooth="yes"/>
      <point x="888" y="1320"/>
      <point x="957" y="1433"/>
      <point x="1223" y="1433" type="curve" smooth="yes"/>
      <point x="1297" y="1433"/>
      <point x="1301" y="1428"/>
      <point x="1355" y="1422" type="curve"/>
      <point x="1355" y="1281" type="line"/>
      <point x="1355" y="1281"/>
      <point x="1293" y="1292"/>
      <point x="1253" y="1292" type="curve" smooth="yes"/>
      <point x="1107" y="1292"/>
      <point x="1070" y="1257"/>
      <point x="1070" y="1032" type="curve"/>
      <point x="1346" y="1032" type="line"/>
      <point x="1346" y="907" type="line"/>
      <point x="1071" y="907" type="line"/>
      <point x="1071" y="0" type="line"/>
    </contour>
  </outline>
</glyph>
